<?xml version="1.0" standalone="no"?>
<!DOCTYPE svg PUBLIC "-//W3C//DTD SVG 20010904//EN"
 "http://www.w3.org/TR/2001/REC-SVG-20010904/DTD/svg10.dtd">
<svg version="1.0" xmlns="http://www.w3.org/2000/svg"
 width="512.000000pt" height="512.000000pt" viewBox="0 0 512.000000 512.000000"
 preserveAspectRatio="xMidYMid meet">
<metadata>
Created by potrace 1.14, written by Peter Selinger 2001-2017
</metadata>
<g transform="translate(0.000000,512.000000) scale(0.100000,-0.100000)"
fill="#000000" stroke="none">
<path d="M0 2560 l0 -2560 2560 0 2560 0 0 2560 0 2560 -2560 0 -2560 0 0
-2560z m2860 1830 c298 -42 515 -141 667 -304 132 -141 197 -317 210 -566 16
-335 -139 -600 -449 -763 l-66 -35 51 -17 c306 -99 529 -396 555 -740 39 -506
-199 -884 -652 -1036 -216 -73 -215 -73 -1033 -77 l-733 -3 0 1774 c0 975 3
1777 8 1781 12 13 1345 0 1442 -14z"/>
<path d="M1890 3454 l0 -566 433 4 c404 4 437 6 510 26 209 57 354 187 409
366 26 84 31 256 9 346 -44 184 -168 303 -366 355 -110 28 -227 35 -612 35
l-383 0 0 -566z"/>
<path d="M1890 1871 l0 -641 389 0 c214 0 434 5 490 10 190 20 314 73 427 185
118 116 165 246 165 450 0 326 -133 522 -411 606 -73 22 -90 23 -567 27 l-493
3 0 -640z"/>
</g>
</svg>
